<?xml version="1.0" encoding="UTF-8"?>
<svg width="9px" height="17px" viewBox="0 0 9 17" version="1.1" xmlns="http://www.w3.org/2000/svg" xmlns:xlink="http://www.w3.org/1999/xlink">
    <!-- Generator: Sketch 52.3 (67297) - http://www.bohemiancoding.com/sketch -->
    <title>Path</title>
    <desc>Created with Sketch.</desc>
    <g id="Page-1" stroke="none" stroke-width="1" fill="none" fill-rule="evenodd">
        <g id="iPhone-8-Copy" transform="translate(-18.000000, -25.000000)" fill="#4A4A4A">
            <g id="Group" transform="translate(0.000000, 1.000000)">
                <path d="M22.5985305,36.9958873 C22.8132579,36.9721566 23.0158911,36.8788843 23.1788964,36.7287442 L30.53728,30.039011 C30.8721028,29.7990393 31.047612,29.3767554 30.9887641,28.9527175 C30.9299162,28.5286796 30.647128,28.1779473 30.2613128,28.0504852 C29.8754975,27.9230231 29.4549491,28.0413934 29.1794837,28.354984 L22.4999982,34.429151 L15.8205163,28.354984 C15.5450509,28.0413934 15.1245025,27.9230231 14.7386872,28.0504852 C14.352872,28.1779473 14.0700838,28.5286796 14.0112359,28.9527175 C13.952388,29.3767554 14.1278972,29.7990393 14.46272,30.039011 L21.8211001,36.7287442 C22.0356736,36.9253488 22.316025,37.021684 22.5985305,36.9958873 Z" id="Path" transform="translate(22.500000, 32.500000) rotate(-270.000000) translate(-22.500000, -32.500000) "></path>
            </g>
        </g>
    </g>
</svg>