<?xml version="1.0" encoding="UTF-8"?>
<svg width="42px" height="30px" viewBox="0 0 42 30" version="1.1" xmlns="http://www.w3.org/2000/svg" xmlns:xlink="http://www.w3.org/1999/xlink">
    <!-- Generator: Sketch 52.4 (67378) - http://www.bohemiancoding.com/sketch -->
    <title>Group 6</title>
    <desc>Created with Sketch.</desc>
    <g id="Page-1" stroke="none" stroke-width="1" fill="none" fill-rule="evenodd">
        <g id="iPhone-8-Copy-13" transform="translate(-80.000000, -454.000000)" fill="#4A4A4A">
            <g id="Group-6" transform="translate(80.000000, 454.000000)">
                <path d="M4.03846154,30 L37.9615385,30 C40.2230769,30 42,28.2631579 42,26.0526316 L42,3.94736842 C42,1.73684211 40.2230769,0 37.9615385,0 L4.03846154,0 C1.77692308,0 0,1.73684211 0,3.94736842 L0,26.0526316 C0,28.2631579 1.77692308,30 4.03846154,30 Z M37.9615385,28.4210526 L4.03846154,28.4210526 C2.66538462,28.4210526 1.61538462,27.3947368 1.61538462,26.0526316 L1.61538462,13.4210526 L40.3846154,13.4210526 L40.3846154,26.0526316 C40.3846154,27.3947368 39.3346154,28.4210526 37.9615385,28.4210526 Z M4.03846154,1.57894737 L37.9615385,1.57894737 C39.3346154,1.57894737 40.3846154,2.60526316 40.3846154,3.94736842 L40.3846154,7.10526316 L1.61538462,7.10526316 L1.61538462,3.94736842 C1.61538462,2.60526316 2.66538462,1.57894737 4.03846154,1.57894737 Z" id="Shape" fill-rule="nonzero"></path>
                <path d="M9.93461538,16.5789474 L8.31923077,16.5789474 C6.54230769,16.5789474 5.08846154,18 5.08846154,19.7368421 L5.08846154,21.3157895 C5.08846154,23.0526316 6.54230769,24.4736842 8.31923077,24.4736842 L9.93461538,24.4736842 C11.7115385,24.4736842 13.1653846,23.0526316 13.1653846,21.3157895 L13.1653846,19.7368421 C13.1653846,18 11.7115385,16.5789474 9.93461538,16.5789474 Z M11.55,21.3157895 C11.55,22.1842105 10.8230769,22.8947368 9.93461538,22.8947368 L8.31923077,22.8947368 C7.43076923,22.8947368 6.70384615,22.1842105 6.70384615,21.3157895 L6.70384615,19.7368421 C6.70384615,18.8684211 7.43076923,18.1578947 8.31923077,18.1578947 L9.93461538,18.1578947 C10.8230769,18.1578947 11.55,18.8684211 11.55,19.7368421 L11.55,21.3157895 Z" id="Shape" fill-rule="nonzero"></path>
                <rect id="Rectangle" x="15.5884615" y="18.3157895" width="21.4038462" height="1.57894737"></rect>
                <rect id="Rectangle" x="15.5884615" y="21.4736842" width="17.3653846" height="1.57894737"></rect>
            </g>
        </g>
    </g>
</svg>