<?xml version="1.0" encoding="UTF-8"?>
<svg width="82px" height="82px" viewBox="0 0 82 82" version="1.1" xmlns="http://www.w3.org/2000/svg" xmlns:xlink="http://www.w3.org/1999/xlink">
    <!-- Generator: Sketch 52.3 (67297) - http://www.bohemiancoding.com/sketch -->
    <title>noun_Check_1536808</title>
    <desc>Created with Sketch.</desc>
    <g id="Page-1" stroke="none" stroke-width="1" fill="none" fill-rule="evenodd">
        <g id="iPhone-8-Copy-3" transform="translate(-147.000000, -211.000000)" fill="#009900">
            <g id="noun_Check_1536808" transform="translate(147.000000, 211.000000)">
                <g id="Group">
                    <path d="M41,0.4 C18.5772392,0.4 0.4,18.5772392 0.4,41 C0.4,63.4227608 18.5772392,81.6 41,81.6 C63.4227608,81.6 81.6,63.4227608 81.6,41 C81.6,18.5772392 63.4227608,0.4 41,0.4 Z M41,75.6 C21.8909477,75.6 6.4,60.1090523 6.4,41 C6.4,21.8909477 21.8909477,6.4 41,6.4 C60.1090523,6.4 75.6,21.8909477 75.6,41 C75.6,60.1090523 60.1090523,75.6 41,75.6 Z" id="Shape" fill-rule="nonzero"></path>
                    <path d="M55,28.7 L36.2,46.5 L27.6,37.7 C26.8497423,36.9318789 25.7466878,36.6223636 24.7063466,36.8880453 C23.6660054,37.1537271 22.84643,37.9542426 22.5563466,38.9880454 C22.2662631,40.0218481 22.5497422,41.131879 23.3,41.9 L34,52.8 C34.5323261,53.3959802 35.3013067,53.7255433 36.1,53.7 C36.8704405,53.6790592 37.6109066,53.3969768 38.2,52.9 L59.1,33.1 C60.3007581,31.988747 60.3897306,30.1203239 59.3,28.9 C58.1541342,27.6868262 56.2535284,27.5984259 55,28.7 Z" id="Path"></path>
                </g>
            </g>
        </g>
    </g>
</svg>