<?xml version="1.0" encoding="UTF-8"?>
<svg width="82px" height="82px" viewBox="0 0 82 82" version="1.1" xmlns="http://www.w3.org/2000/svg" xmlns:xlink="http://www.w3.org/1999/xlink">
    <!-- Generator: Sketch 52.3 (67297) - http://www.bohemiancoding.com/sketch -->
    <title>Group 2</title>
    <desc>Created with Sketch.</desc>
    <g id="Page-1" stroke="none" stroke-width="1" fill="none" fill-rule="evenodd">
        <g id="iPhone-8-Copy-5" transform="translate(-147.000000, -211.000000)" fill="#ff0000cc">
            <g id="Group-2" transform="translate(147.000000, 211.000000)">
                <g id="noun_Check_1536808" fill-rule="nonzero">
                    <g id="Group">
                        <path d="M41,0.4 C18.5772392,0.4 0.4,18.5772392 0.4,41 C0.4,63.4227608 18.5772392,81.6 41,81.6 C63.4227608,81.6 81.6,63.4227608 81.6,41 C81.6,18.5772392 63.4227608,0.4 41,0.4 Z M41,75.6 C21.8909477,75.6 6.4,60.1090523 6.4,41 C6.4,21.8909477 21.8909477,6.4 41,6.4 C60.1090523,6.4 75.6,21.8909477 75.6,41 C75.6,60.1090523 60.1090523,75.6 41,75.6 Z" id="Shape"></path>
                    </g>
                </g>
                <path d="M41.5,36.052256 L49.4255022,28.1267538 C50.9290207,26.6232353 53.3667059,26.6232353 54.8702244,28.1267538 L54.8732462,28.1297756 C56.3767647,29.6332941 56.3767647,32.0709793 54.8732462,33.5744978 L46.947744,41.5 L54.8732462,49.4255022 C56.3767647,50.9290207 56.3767647,53.3667059 54.8732462,54.8702244 L54.8702244,54.8732462 C53.3667059,56.3767647 50.9290207,56.3767647 49.4255022,54.8732462 L41.5,46.947744 L33.5744978,54.8732462 C32.0709793,56.3767647 29.6332941,56.3767647 28.1297756,54.8732462 L28.1267538,54.8702244 C26.6232353,53.3667059 26.6232353,50.9290207 28.1267538,49.4255022 L36.052256,41.5 L28.1267538,33.5744978 C26.6232353,32.0709793 26.6232353,29.6332941 28.1267538,28.1297756 L28.1297756,28.1267538 C29.6332941,26.6232353 32.0709793,26.6232353 33.5744978,28.1267538 L41.5,36.052256 Z" id="Combined-Shape"></path>
            </g>
        </g>
    </g>
</svg>