<?xml version="1.0" encoding="UTF-8"?>
<svg width="11px" height="11px" viewBox="0 0 11 11" version="1.1" xmlns="http://www.w3.org/2000/svg" xmlns:xlink="http://www.w3.org/1999/xlink">
    <!-- Generator: Sketch 52.4 (67378) - http://www.bohemiancoding.com/sketch -->
    <title>Combined Shape</title>
    <desc>Created with Sketch.</desc>
    <g id="Page-1" stroke="none" stroke-width="1" fill="none" fill-rule="evenodd">
        <g id="iPhone-8-Copy-12" transform="translate(-330.000000, -84.000000)" fill="#D9D9D9">
            <path d="M336.869897,88.1161032 L340.100666,88.1161032 C340.865368,88.1161032 341.485281,88.7360167 341.485281,89.5007186 C341.485281,90.2654206 340.865368,90.885334 340.100666,90.885334 L336.869897,90.885334 L336.869897,94.1161032 C336.869897,94.8808052 336.249983,95.5007186 335.485281,95.5007186 C334.720579,95.5007186 334.100666,94.8808052 334.100666,94.1161032 L334.100666,90.885334 L330.869897,90.885334 C330.105195,90.885334 329.485281,90.2654206 329.485281,89.5007186 C329.485281,88.7360167 330.105195,88.1161032 330.869897,88.1161032 L334.100666,88.1161032 L334.100666,84.885334 C334.100666,84.120632 334.720579,83.5007186 335.485281,83.5007186 C336.249983,83.5007186 336.869897,84.120632 336.869897,84.885334 L336.869897,88.1161032 Z" id="Combined-Shape" transform="translate(335.485281, 89.500719) rotate(-45.000000) translate(-335.485281, -89.500719) "></path>
        </g>
    </g>
</svg>