<?xml version="1.0" encoding="UTF-8"?>
<svg width="52px" height="30px" viewBox="0 0 52 30" version="1.1" xmlns="http://www.w3.org/2000/svg" xmlns:xlink="http://www.w3.org/1999/xlink">
    <!-- Generator: Sketch 52.4 (67378) - http://www.bohemiancoding.com/sketch -->
    <title>Shape 2</title>
    <desc>Created with Sketch.</desc>
    <g id="Page-1" stroke="none" stroke-width="1" fill="none" fill-rule="evenodd">
        <g id="iPhone-8-Copy-13" transform="translate(-235.000000, -454.000000)" fill="#4A4A4A" fill-rule="nonzero">
            <g id="Shape-2" transform="translate(235.000000, 454.000000)">
                <path d="M4.08363099,0.576923077 C2.13964878,0.576923077 0.583405242,2.13983077 0.583405242,4.03846154 L0.583405242,7.40985577 C0.582218036,7.43989238 0.582218036,7.46996339 0.583405242,7.5 L0.583405242,22.5000115 C0.58107853,22.5420378 0.58107853,22.5841584 0.583405242,22.6261846 L0.583405242,25.96155 C0.583405242,27.8602038 2.13964878,29.4230885 4.08363099,29.4230885 L48.4198228,29.4230885 C50.3638053,29.4230885 51.9200485,27.8602038 51.9200485,25.96155 L51.9200485,22.5901269 C51.9212349,22.5600999 51.9212349,22.5300385 51.9200485,22.5000115 L51.9200485,7.5 C51.9217583,7.46396213 51.9217583,7.42786479 51.9200485,7.39182692 L51.9200485,4.03846154 C51.9200485,2.13983077 50.3638053,0.576923077 48.4198228,0.576923077 L4.08363099,0.576923077 Z M4.08363099,2.88461538 L48.4198228,2.88461538 C48.9213397,2.88461538 49.5865647,3.56420769 49.5865647,4.03846154 L49.5865647,6.45432692 C45.6030852,7.06108269 42.5861135,10.695225 42.5861135,15.0000115 C42.5861135,19.3047231 45.6030834,22.9569346 49.5865647,23.5636846 L49.5865647,25.96155 C49.5865647,26.4357808 48.9213397,27.1153962 48.4198228,27.1153962 L4.08363099,27.1153962 C3.58211415,27.1153962 2.91688905,26.4357808 2.91688905,25.96155 L2.91688905,23.5636846 C6.9003704,22.9569346 9.91734036,19.3047231 9.91734036,15.0000115 C9.91734036,10.695225 6.90036865,7.06108269 2.91688905,6.45432692 L2.91688905,4.03846154 C2.91688905,3.56420769 3.58211415,2.88461538 4.08363099,2.88461538 Z M26.2517272,4.61538462 C20.4661779,4.61538462 15.7510497,9.27837692 15.7510497,15.0000115 C15.7510497,20.7215308 20.4661756,25.3846269 26.2517272,25.3846269 C32.0372753,25.3846269 36.7524041,20.7215308 36.7524041,15.0000115 C36.7524041,9.27838269 32.0372753,4.61538462 26.2517272,4.61538462 Z M26.2517272,6.92307692 C30.7761554,6.92307692 34.4189203,10.5255404 34.4189203,15.0000115 C34.4189203,19.4743385 30.7761565,23.0769346 26.2517272,23.0769346 C21.7272932,23.0769346 18.0845335,19.4743385 18.0845335,15.0000115 C18.0845335,10.5255462 21.7272979,6.92307692 26.2517272,6.92307692 Z M26.1241143,8.63581731 C25.5230134,8.70114235 25.0719789,9.20979505 25.0849847,9.80769231 L25.0849847,9.93389423 C24.3355889,10.0817423 23.6601537,10.3554058 23.0978775,10.7451923 C22.2562978,11.3286 21.5847591,12.1773288 21.5847591,13.2692308 C21.5847591,14.3611269 22.4214773,15.1848577 23.2801812,15.5769346 C24.138885,15.9690115 25.1377555,16.1284731 26.2152661,16.1538577 C26.9537476,16.1711654 27.6284927,16.4018769 28.0565308,16.6947231 C28.4845689,16.9875692 28.585211,17.2971462 28.585211,17.3077038 C28.585211,17.3180885 28.6420521,17.3544346 28.2388344,17.54205 C27.8722359,17.7127615 27.2157357,17.8599346 26.4704908,17.8846269 C26.3565776,17.8616335 26.2398293,17.8556054 26.1241143,17.8667423 C26.0996195,17.8719282 26.0752999,17.8778929 26.0511933,17.8846269 C25.2981441,17.86155 24.6342691,17.7141462 24.2646194,17.54205 C23.8613994,17.3543769 23.9182429,17.3183192 23.9182429,17.3077038 C23.9241923,16.8915863 23.7031229,16.5045353 23.3396862,16.2947595 C22.9762495,16.0849838 22.5267525,16.0849838 22.1633158,16.2947595 C21.7998791,16.5045353 21.5788097,16.8915863 21.5847591,17.3077038 C21.5847591,18.3995885 22.416568,19.2133385 23.2801812,19.6153962 C23.8249774,19.8690115 24.4382017,20.0342423 25.0849847,20.1202038 L25.0849847,20.1923192 C25.0790414,20.6084329 25.3001121,20.9954779 25.6635465,21.20525 C26.0269808,21.4150221 26.4764731,21.4150221 26.8399074,21.20525 C27.2033417,20.9954779 27.4244125,20.6084329 27.4184691,20.1923192 L27.4184691,20.1202038 C28.0652521,20.0342423 28.6784765,19.8690115 29.2232726,19.6153962 C30.0868858,19.2133385 30.9186947,18.3995885 30.9186947,17.3077038 C30.9186947,16.2158192 30.226143,15.3755885 29.3873455,14.8016654 C28.5485486,14.2278 27.4828193,13.87455 26.2881877,13.8461654 C25.43258,13.8259731 24.6727494,13.6538769 24.2646194,13.4675481 C23.85649,13.2812077 23.9182429,13.279725 23.9182429,13.2692308 C23.9182429,13.2586154 24.0216696,12.9330173 24.4469231,12.6382212 C24.8536657,12.3562558 25.4761604,12.1521115 26.1605754,12.1334135 C26.251412,12.1440127 26.3431937,12.1440127 26.4340303,12.1334135 C27.1946275,12.1544712 27.8662327,12.2844808 28.2388344,12.4579327 C28.5412502,12.5987135 28.5822974,12.6688962 28.585211,12.6923077 C28.5792616,13.1084252 28.800331,13.4954763 29.1637676,13.705252 C29.5272043,13.9150278 29.9767013,13.9150278 30.340138,13.705252 C30.7035747,13.4954763 30.9246441,13.1084252 30.9186947,12.6923077 C30.9186947,11.6004 30.0868858,10.7686212 29.2232726,10.3665865 C28.6784765,10.1129712 28.0652527,9.97849038 27.4184691,9.89783654 L27.4184691,9.80769231 C27.4257073,9.47538893 27.2877059,9.15613638 27.039807,8.93169517 C26.791908,8.70725395 26.4581887,8.59942283 26.1241143,8.63581731 Z M2.91688905,8.90625 C5.53876063,9.50221731 7.58385661,11.8937481 7.58385661,15.0000115 C7.58385661,18.1070308 5.5397425,20.4986077 2.91688905,21.0937615 L2.91688905,8.90625 Z M49.5865647,8.90625 L49.5865647,21.0937615 C46.9637113,20.4986077 44.9195972,18.1070308 44.9195972,15.0000115 C44.9195972,11.8937481 46.9646932,9.50221731 49.5865647,8.90625 Z" id="Shape"></path>
            </g>
        </g>
    </g>
</svg>