<?xml version="1.0" encoding="UTF-8"?>
<svg width="213px" height="91px" viewBox="0 0 213 91" version="1.1" xmlns="http://www.w3.org/2000/svg" xmlns:xlink="http://www.w3.org/1999/xlink">
    <!-- Generator: Sketch 52.4 (67378) - http://www.bohemiancoding.com/sketch -->
    <title>Group 3</title>
    <desc>Created with Sketch.</desc>
    <g id="Page-1" stroke="none" stroke-width="1" fill="none" fill-rule="evenodd">
        <g id="iPhone-8-Copy-9" transform="translate(-80.000000, -94.000000)">
            <g id="Group-3" transform="translate(82.000000, 94.000000)">
                <g id="Group-13-Copy">
                    <path d="M57.7824083,12.2460868 C91.7931494,0.0106755562 139.626236,-3.05617694 201.281667,3.0455293 L201.281668,3.04552775 C206.478875,3.55986739 210.508055,7.81571661 210.737458,13.033272 C212.186714,45.995235 195.970837,68.5705864 162.089829,80.7593262 C127.032858,93.3711199 75.4517281,94.0035078 7.34643864,82.65649 L7.34643848,82.656491 C1.62629695,81.7034586 -2.23820855,76.2937822 -1.28517614,70.5736407 C-1.21553619,70.1556587 -1.12065766,69.7422756 -1.00106112,69.3357596 C6.8827959,42.5380389 26.4772857,23.508148 57.7824083,12.2460868 Z" id="Rectangle" fill="#C14402"></path>
                    <g id="Group-7-Copy-8" transform="translate(37.544484, 25.570248)">
                        <g id="Group-3-Copy-10" transform="translate(4.448652, 0.119116)"></g>
                        <g id="Group" transform="translate(0.000000, 8.289077)">
                            <path d="M58.5319757,25.913281 C59.0131477,23.2278312 52.9625699,25.5101763 52.893831,25.7167494 C52.6188756,27.6447646 52.0871582,29.5788039 45.6257056,28.5459386 C32.4965837,26.4113503 15.5180857,21.2470237 4.93230159,22.073316 C-0.566807061,22.5553198 -0.841762494,28.1327925 1.08292553,30.1985231 C1.08292553,30.1985231 2.45770269,28.3393655 6.78825075,27.5130733 C14.2120474,26.1359195 32.7028003,29.6476616 44.5258838,30.9559577 C51.8122028,31.7133922 58.1882814,28.3233001 58.5319757,25.913281 Z" id="f-copy" fill="#FFFFFF"></path>
                            <path d="M19.8706441,20.8200302 L23.3441513,2.08200302 C25.2232711,1.87285098 27.5341743,1.76827654 30.27693,1.76827654 C33.0196858,1.76827654 35.0268973,2.16756079 36.2986249,2.96614129 C37.5703525,3.76472178 38.2062067,4.96732794 38.2062067,6.57399583 C38.2062067,8.18066373 37.793376,9.48784433 36.9677021,10.4955769 C36.1420283,11.5033094 35.0174204,12.1687831 33.5938447,12.4920181 C33.9165219,14.0701653 34.4479821,15.4961805 35.1882415,16.7701065 C35.8715578,17.9679772 36.611806,18.757039 37.4090084,19.1373154 C37.1242932,19.9358959 36.6924818,20.5110554 36.113561,20.8628111 C35.5346402,21.2145668 34.8323535,21.390442 34.0066796,21.390442 C33.1810057,21.390442 32.4455027,21.1480194 31.8001484,20.6631669 C31.1547941,20.1783145 30.575882,19.4890738 30.0633948,18.5954242 C28.9814773,16.6560144 28.3835845,14.1557345 28.2696984,11.0945092 L28.468998,11.0945092 C29.8735926,11.0564816 30.9270228,10.6714575 31.6293201,9.93942537 C32.3316175,9.20739325 32.6827608,8.07133447 32.6827608,6.53121495 C32.6827608,4.610819 31.8760801,3.61260836 30.2626943,3.53655307 L29.6363242,3.53655307 C29.4654951,3.53655307 29.33263,3.54605984 29.237725,3.56507366 L25.9635174,20.8200302 L19.8706441,20.8200302 Z M38.3034839,18.053533 C38.1041833,17.2739664 38.0045345,16.2472354 38.0045345,14.9733094 C38.0045345,13.6993834 38.2228129,12.482517 38.6593761,11.3226739 C39.0959393,10.1628309 39.7128128,9.16462021 40.5100152,8.32801207 C42.1423819,6.57874052 44.3061844,5.70411786 47.0014877,5.70411786 C47.9695191,5.70411786 48.8046709,5.86573291 49.5069683,6.18896788 L54.3755726,5.70411786 L52.2686912,16.8271477 C52.2117482,17.0553135 52.1832771,17.3785437 52.1832771,17.7968477 C52.1832771,18.2151518 52.311397,18.5573954 52.5676406,18.8235889 C52.8238842,19.0897824 53.1418114,19.2418907 53.5214315,19.2799184 C53.3316214,19.9263883 52.8903196,20.4397538 52.1975128,20.8200302 C51.504706,21.2003066 50.7692029,21.390442 49.9909816,21.390442 C49.2127602,21.390442 48.5626704,21.2430871 48.0406927,20.9483728 C47.5187149,20.6536586 47.1818071,20.2591277 47.029959,19.7647684 C46.7262629,20.2401139 46.2517448,20.6298914 45.6063905,20.9341125 C44.9610362,21.2383337 44.2065524,21.390442 43.3429165,21.390442 C42.4792806,21.390442 41.6963258,21.2763608 40.9940285,21.0481949 C40.2917311,20.820029 39.7175642,20.4587719 39.2715105,19.9644125 C38.8254568,19.4700532 38.5027845,18.8330997 38.3034839,18.053533 Z M44.6668353,9.76830183 C44.4770252,10.3482234 44.2255306,11.4129814 43.9123439,12.9626078 C43.5991573,14.5122343 43.4425663,15.8384284 43.4425663,16.94123 C43.4425663,18.0440317 43.5279796,18.7570393 43.6988087,19.0802742 C43.8696377,19.4035092 44.1068968,19.5651243 44.4105929,19.5651243 C45.0179852,19.5651243 45.5447003,19.2751678 45.990754,18.6952463 C46.4368077,18.1153247 46.7452445,17.3120028 46.9160735,16.2852565 L48.4250562,7.92872382 C48.026455,7.58647504 47.5946435,7.41535322 47.1296088,7.41535322 C46.6645741,7.41535322 46.29445,7.49140736 46.0192254,7.64351793 C45.7440007,7.7956285 45.4972513,8.04280447 45.2789697,8.38505325 C45.0606881,8.72730203 44.8566453,9.18838028 44.6668353,9.76830183 Z M64.8649001,20.7344684 C63.7734921,21.1717863 62.6868457,21.390442 61.6049282,21.390442 C60.5230107,21.390442 59.7922528,21.2953743 59.4126326,21.1052361 L58.5300201,25.9537363 L52.7503319,26.524148 L56.679381,6.27452964 L61.3202145,5.78967963 L60.9500866,7.75760029 C61.747289,6.40761898 62.9715457,5.73263845 64.6228934,5.73263845 C66.4830323,5.73263845 67.9065866,6.33156483 68.893599,7.52943557 C69.7667254,8.61322339 70.2032821,9.98219798 70.2032821,11.6364004 C70.2032821,13.2906029 69.9850038,14.7071113 69.5484406,15.8859682 C69.1118774,17.0648252 68.4950038,18.0582824 67.6978015,18.8663698 C66.9005991,19.6744572 65.9563081,20.2971505 64.8649001,20.7344684 Z M59.7542891,19.2228772 C60.1528903,19.565126 60.5989373,19.7362478 61.0924435,19.7362478 C61.5859497,19.7362478 61.9750546,19.6411801 62.2597697,19.4510419 C62.5444848,19.2609037 62.7912342,18.9757006 63.0000253,18.5954242 C63.5694556,17.5686779 64.0819351,15.4962024 64.5374793,12.3779358 C64.6703464,11.4652723 64.7367789,10.5621294 64.7367789,9.66847977 C64.7367789,8.77483017 64.6371301,8.18541055 64.4378295,7.90020323 C64.2385289,7.61499591 63.9490729,7.47239439 63.5694527,7.47239439 C62.4116112,7.47239439 61.6428919,8.60369979 61.2632717,10.8663445 L59.7542891,19.2228772 Z M77.2618094,19.2513978 C76.6733981,20.6774344 75.4396511,21.390442 73.5605312,21.390442 C72.5924998,21.390442 71.8047997,21.0577051 71.1974074,20.3922213 C70.6849202,19.8027929 70.4286804,19.2133733 70.4286804,18.6239448 C70.4286804,17.0838253 70.7798238,14.8117077 71.4821212,11.807524 L72.5355619,6.27452964 L78.3152501,5.70411786 L76.5784965,14.7166241 C76.2558193,16.1236468 76.0944832,17.0743237 76.0944832,17.568683 C76.0944832,18.6524708 76.483588,19.2133701 77.2618094,19.2513978 Z M73.0480465,2.31016773 C73.0480465,1.5686287 73.3564833,0.998222622 73.9733661,0.598932375 C74.5902489,0.199642129 75.3447326,0 76.23684,0 C77.1289475,0 77.8454698,0.199642129 78.3864285,0.598932375 C78.9273873,0.998222622 79.1978626,1.5686287 79.1978626,2.31016773 C79.1978626,3.05170676 78.8989162,3.61260608 78.3010144,3.9928825 C77.7031126,4.37315893 76.9581192,4.56329429 76.0660118,4.56329429 C75.1739044,4.56329429 74.4478917,4.37315893 73.887952,3.9928825 C73.3280122,3.61260608 73.0480465,3.05170676 73.0480465,2.31016773 Z M89.3028265,4.27808839 C89.5685607,3.82175668 89.7014257,3.34641828 89.7014257,2.85205893 C89.7014257,1.97742315 89.4356956,1.54011182 88.9042274,1.54011182 C88.088044,1.54011182 87.5091319,2.37670741 87.1674737,4.04992368 L86.7404032,6.27452964 L89.3312979,6.27452964 L89.1604697,7.55795616 L86.4841609,7.55795616 L83.9217375,20.8200302 L78.1705206,21.390442 L80.9037722,7.55795616 L78.8823049,7.55795616 L79.1385472,6.27452964 L81.1315432,6.27452964 L81.729442,4.02140309 C82.0711001,2.63339414 82.9726845,1.61616996 84.4342222,0.969700036 C85.4971587,0.513368326 86.9207129,0.285205893 88.7049278,0.285205893 C90.4891426,0.285205893 91.7798318,0.513368326 92.5770342,0.969700036 C93.3742365,1.42603175 93.7728317,1.95841076 93.7728317,2.56685304 C93.7728317,3.17529532 93.5355727,3.66964725 93.0610475,4.04992368 C92.5865222,4.4302001 92.0835331,4.62033547 91.5520648,4.62033547 C90.5081093,4.62033547 89.7583707,4.50625425 89.3028265,4.27808839 Z M93.5711595,21.390442 C89.3953376,21.390442 87.307458,19.422541 87.307458,15.48668 C87.307458,12.6916483 88.0761773,10.3910104 89.613639,8.58469738 C91.2460057,6.66430143 93.4762408,5.70411786 96.3044111,5.70411786 C98.35436,5.70411786 99.901289,6.17945626 100.945245,7.13014732 C101.9892,8.08083839 102.51117,9.55438743 102.51117,11.5508387 C102.51117,14.5930501 101.694999,16.9982624 100.062632,18.7665478 C98.4682273,20.5158193 96.3044248,21.390442 93.5711595,21.390442 Z M93.6992807,10.9091254 C93.5189611,11.6791852 93.3149183,12.6726424 93.0871462,13.889527 C92.8593741,15.1064115 92.7454898,16.4658794 92.7454898,17.9679713 C92.7454898,18.4623306 92.8261578,18.8711216 92.9874964,19.1943566 C93.148835,19.5175916 93.4477814,19.6792066 93.8843446,19.6792066 C94.3209078,19.6792066 94.6767964,19.5746322 94.952021,19.3654801 C95.2272456,19.1563281 95.4692498,18.8045777 95.6780409,18.3102183 C96.0576611,17.4355825 96.3993141,16.1854426 96.7030103,14.5597608 C97.0067064,12.9340791 97.1727878,11.7695 97.2012593,11.0659886 C97.2297308,10.3624773 97.2439663,9.74929072 97.2439663,9.22641064 C97.2439663,8.70353055 97.1680434,8.27097261 97.0161954,7.92872382 C96.8643473,7.58647504 96.5748913,7.41535322 96.1478186,7.41535322 C95.7207459,7.41535322 95.3648573,7.54844797 95.0801422,7.81464147 C94.795427,8.08083496 94.5391873,8.47061245 94.3114152,8.98398563 C94.0836431,9.4973588 93.8796003,10.1390656 93.6992807,10.9091254 Z M108.914856,21.390442 C104.739034,21.390442 102.651154,19.422541 102.651154,15.48668 C102.651154,12.6916483 103.419873,10.3910104 104.957335,8.58469738 C106.589702,6.66430143 108.819937,5.70411786 111.648107,5.70411786 C113.698056,5.70411786 115.244985,6.17945626 116.288941,7.13014732 C117.332896,8.08083839 117.854866,9.55438743 117.854866,11.5508387 C117.854866,14.5930501 117.038695,16.9982624 115.406328,18.7665478 C113.811923,20.5158193 111.648121,21.390442 108.914856,21.390442 Z M109.042977,10.9091254 C108.862657,11.6791852 108.658614,12.6726424 108.430842,13.889527 C108.20307,15.1064115 108.089186,16.4658794 108.089186,17.9679713 C108.089186,18.4623306 108.169854,18.8711216 108.331193,19.1943566 C108.492531,19.5175916 108.791478,19.6792066 109.228041,19.6792066 C109.664604,19.6792066 110.020493,19.5746322 110.295717,19.3654801 C110.570942,19.1563281 110.812946,18.8045777 111.021737,18.3102183 C111.401357,17.4355825 111.74301,16.1854426 112.046706,14.5597608 C112.350403,12.9340791 112.516484,11.7695 112.544955,11.0659886 C112.573427,10.3624773 112.587662,9.74929072 112.587662,9.22641064 C112.587662,8.70353055 112.51174,8.27097261 112.359892,7.92872382 C112.208043,7.58647504 111.918587,7.41535322 111.491515,7.41535322 C111.064442,7.41535322 110.708553,7.54844797 110.423838,7.81464147 C110.139123,8.08083496 109.882883,8.47061245 109.655111,8.98398563 C109.427339,9.4973588 109.223296,10.1390656 109.042977,10.9091254 Z M127.020275,5.70411786 C127.703591,5.70411786 128.310974,5.780172 128.842442,5.93228257 C128.861423,5.85622729 128.889895,5.71362577 128.927857,5.50447373 L129.070213,4.62033547 C129.146137,4.24005904 129.241041,3.73620033 129.354927,3.10874423 L129.810469,0.855617679 L135.476272,0.285205893 L132.31595,16.8271477 C132.296969,16.9412306 132.287478,17.0933389 132.287478,17.2834771 L132.287478,17.7398065 C132.287478,18.1581106 132.391872,18.5241212 132.600663,18.8378492 C132.809454,19.1515773 133.084675,19.308439 133.426333,19.308439 C133.046713,20.2020886 132.277994,20.839042 131.120152,21.2193184 C130.721551,21.3334014 130.242288,21.390442 129.682348,21.390442 C129.122408,21.390442 128.586203,21.2430871 128.073715,20.9483728 C127.561228,20.6536586 127.229066,20.2591277 127.077218,19.7647684 C126.773521,20.2591277 126.317984,20.6536586 125.710592,20.9483728 C125.103199,21.2430871 124.358206,21.390442 123.475589,21.390442 C122.592972,21.390442 121.786291,21.2763608 121.055523,21.0481949 C120.324754,20.820029 119.731606,20.4587719 119.276062,19.9644125 C118.440898,18.9947076 118.023322,17.4070774 118.023322,15.2014741 C118.023322,12.3494009 118.858474,10.0582698 120.528802,8.32801207 C122.199131,6.57874052 124.362934,5.70411786 127.020275,5.70411786 Z M125.198107,8.55617679 C124.818487,9.31672964 124.434127,10.6381704 124.045017,12.5205387 C123.655906,14.402907 123.461353,16.1901794 123.461353,17.8824095 C123.461353,19.0422526 123.803006,19.6221654 124.486323,19.6221654 C125.093715,19.6221654 125.61094,19.3179489 126.038012,18.7095066 C126.465085,18.1010643 126.764032,17.292989 126.934861,16.2852565 L128.472315,7.92872382 C128.073713,7.58647504 127.523272,7.41535322 126.820975,7.41535322 C126.118678,7.41535322 125.577727,7.79562394 125.198107,8.55617679 Z" id="Rapifood-Copy-19" fill="#FFFFFF"></path>
                            <path d="M10.0836104,9.80395257 C10.0836104,8.49132869 11.1382283,7.42723679 12.4565641,7.42723679 L16.3113833,7.42723679 C17.6219294,7.42723679 18.684337,8.48217732 18.684337,9.80395257 L18.684337,9.80395257 C18.684337,11.1165764 17.6297191,12.1806683 16.3113833,12.1806683 L12.4565641,12.1806683 C11.146018,12.1806683 10.0836104,11.1257278 10.0836104,9.80395257 L10.0836104,9.80395257 Z" id="Rectangle-Copy-13" fill="#FFBC03"></path>
                            <path d="M4.44865166,16.0428315 C4.44865166,14.7302076 5.51653704,13.6661157 6.82693519,13.6661157 L15.1197463,13.6661157 C16.4332361,13.6661157 17.4980299,14.7210562 17.4980299,16.0428315 L17.4980299,16.0428315 C17.4980299,17.3554554 16.4301445,18.4195473 15.1197463,18.4195473 L6.82693519,18.4195473 C5.51344546,18.4195473 4.44865166,17.3646067 4.44865166,16.0428315 L4.44865166,16.0428315 Z" id="Rectangle-Copy-14" fill="#FFBC03"></path>
                        </g>
                    </g>
                </g>
                <path d="M118.83,66 L118.83,61.88 L118.49,61.81 C118.373333,61.7833332 118.279167,61.7416669 118.2075,61.685 C118.135833,61.628333 118.1,61.5450005 118.1,61.435 L118.1,60.825 L118.83,60.825 L118.83,60.53 C118.83,60.2333318 118.8775,59.9650012 118.9725,59.725 C119.0675,59.4849988 119.204166,59.2800008 119.3825,59.11 C119.560834,58.9399991 119.778332,58.8083338 120.035,58.715 C120.291668,58.6216662 120.583332,58.575 120.91,58.575 C121.036667,58.575 121.154166,58.5824999 121.2625,58.5975 C121.370834,58.6125001 121.483333,58.6366665 121.6,58.67 L121.57,59.425 C121.566667,59.4783336 121.5525,59.5224998 121.5275,59.5575 C121.5025,59.5925002 121.471667,59.6208332 121.435,59.6425 C121.398333,59.6641668 121.3575,59.6799999 121.3125,59.69 C121.2675,59.7 121.223334,59.705 121.18,59.705 C121.043333,59.705 120.921667,59.7183332 120.815,59.745 C120.708333,59.7716668 120.619167,59.8191663 120.5475,59.8875 C120.475833,59.9558337 120.421667,60.0458328 120.385,60.1575 C120.348333,60.2691672 120.33,60.4099991 120.33,60.58 L120.33,60.825 L121.55,60.825 L121.55,61.885 L120.38,61.885 L120.38,66 L118.83,66 Z M125.251613,66 C125.104945,66 124.994113,65.9800002 124.919113,65.94 C124.844112,65.8999998 124.781613,65.8166673 124.731613,65.69 L124.621613,65.405 C124.491612,65.5150005 124.366613,65.6116662 124.246613,65.695 C124.126612,65.7783337 124.002447,65.8491664 123.874113,65.9075 C123.745779,65.9658336 123.609113,66.0091665 123.464113,66.0375 C123.319112,66.0658335 123.15828,66.08 122.981613,66.08 C122.744945,66.08 122.529947,66.049167 122.336613,65.9875 C122.143278,65.925833 121.979113,65.8350006 121.844113,65.715 C121.709112,65.5949994 121.604946,65.4458342 121.531613,65.2675 C121.458279,65.0891658 121.421613,64.8833345 121.421613,64.65 C121.421613,64.4666657 121.468279,64.2783343 121.561613,64.085 C121.654947,63.8916657 121.816612,63.7158341 122.046613,63.5575 C122.276614,63.3991659 122.586611,63.2666672 122.976613,63.16 C123.366615,63.0533328 123.858276,62.9933334 124.451613,62.98 L124.451613,62.76 C124.451613,62.4566651 124.389113,62.2375007 124.264113,62.1025 C124.139112,61.9674993 123.961614,61.9 123.731613,61.9 C123.548279,61.9 123.39828,61.9199998 123.281613,61.96 C123.164946,62.0000002 123.06078,62.0449997 122.969113,62.095 C122.877446,62.1450002 122.78828,62.1899998 122.701613,62.23 C122.614946,62.2700002 122.511613,62.29 122.391613,62.29 C122.284946,62.29 122.194113,62.2641669 122.119113,62.2125 C122.044112,62.1608331 121.984946,62.096667 121.941613,62.02 L121.661613,61.535 C121.974948,61.2583319 122.322444,61.0525007 122.704113,60.9175 C123.085781,60.7824993 123.494944,60.715 123.931613,60.715 C124.244948,60.715 124.527445,60.7658328 124.779113,60.8675 C125.030781,60.9691672 125.244112,61.1108324 125.419113,61.2925 C125.594114,61.4741676 125.728279,61.6899987 125.821613,61.94 C125.914947,62.1900012 125.961613,62.4633318 125.961613,62.76 L125.961613,66 L125.251613,66 Z M123.471613,65.055 C123.671614,65.055 123.846612,65.0200003 123.996613,64.95 C124.146614,64.8799996 124.298279,64.7666674 124.451613,64.61 L124.451613,63.89 C124.141611,63.9033334 123.886614,63.9299998 123.686613,63.97 C123.486612,64.0100002 123.32828,64.0599997 123.211613,64.12 C123.094946,64.1800003 123.014113,64.2483329 122.969113,64.325 C122.924113,64.4016671 122.901613,64.4849995 122.901613,64.575 C122.901613,64.7516675 122.949946,64.875833 123.046613,64.9475 C123.14328,65.019167 123.284945,65.055 123.471613,65.055 Z M129.683226,61.95 C129.643225,62.0133336 129.600726,62.0583332 129.555726,62.085 C129.510725,62.1116668 129.453226,62.125 129.383226,62.125 C129.309892,62.125 129.236559,62.1091668 129.163226,62.0775 C129.089892,62.0458332 129.010726,62.0116668 128.925726,61.975 C128.840725,61.9383331 128.744893,61.9041668 128.638226,61.8725 C128.531558,61.8408332 128.409893,61.825 128.273226,61.825 C128.076558,61.825 127.925726,61.8624996 127.820726,61.9375 C127.715725,62.0125004 127.663226,62.116666 127.663226,62.25 C127.663226,62.3466671 127.697392,62.4266663 127.765726,62.49 C127.834059,62.5533336 127.924892,62.6091664 128.038226,62.6575 C128.151559,62.7058336 128.279891,62.7516664 128.423226,62.795 C128.56656,62.8383335 128.713225,62.8866664 128.863226,62.94 C129.013226,62.9933336 129.159891,63.055833 129.303226,63.1275 C129.44656,63.199167 129.574892,63.2874995 129.688226,63.3925 C129.801559,63.4975005 129.892392,63.6249992 129.960726,63.775 C130.029059,63.9250007 130.063226,64.1049989 130.063226,64.315 C130.063226,64.5716679 130.016559,64.8083322 129.923226,65.025 C129.829892,65.2416677 129.690726,65.4283325 129.505726,65.585 C129.320725,65.7416674 129.092394,65.8633329 128.820726,65.95 C128.549058,66.0366671 128.236561,66.08 127.883226,66.08 C127.706558,66.08 127.529893,66.0633335 127.353226,66.03 C127.176558,65.9966665 127.005726,65.9516669 126.840726,65.895 C126.675725,65.838333 126.523226,65.7708337 126.383226,65.6925 C126.243225,65.6141663 126.123226,65.5300004 126.023226,65.44 L126.383226,64.87 C126.426559,64.803333 126.478225,64.7508335 126.538226,64.7125 C126.598226,64.6741665 126.676558,64.655 126.773226,64.655 C126.863226,64.655 126.944059,64.6749998 127.015726,64.715 C127.087393,64.7550002 127.164892,64.7983331 127.248226,64.845 C127.331559,64.8916669 127.429058,64.9349998 127.540726,64.975 C127.652393,65.0150002 127.793225,65.035 127.963226,65.035 C128.083226,65.035 128.184892,65.0225001 128.268226,64.9975 C128.351559,64.9724999 128.418225,64.9383335 128.468226,64.895 C128.518226,64.8516664 128.554892,64.8033336 128.578226,64.75 C128.601559,64.6966664 128.613226,64.6416669 128.613226,64.585 C128.613226,64.4816661 128.578226,64.396667 128.508226,64.33 C128.438225,64.263333 128.346559,64.2058336 128.233226,64.1575 C128.119892,64.1091664 127.990726,64.0641669 127.845726,64.0225 C127.700725,63.9808331 127.553226,63.9333336 127.403226,63.88 C127.253225,63.8266664 127.105726,63.7625004 126.960726,63.6875 C126.815725,63.6124996 126.686559,63.5175006 126.573226,63.4025 C126.459892,63.2874994 126.368226,63.1466675 126.298226,62.98 C126.228225,62.8133325 126.193226,62.6116678 126.193226,62.375 C126.193226,62.1549989 126.235725,61.9458343 126.320726,61.7475 C126.405726,61.5491657 126.533225,61.3750007 126.703226,61.225 C126.873226,61.0749992 127.086558,60.9558338 127.343226,60.8675 C127.599893,60.7791662 127.89989,60.735 128.243226,60.735 C128.429893,60.735 128.610725,60.7516665 128.785726,60.785 C128.960726,60.8183335 129.124891,60.8649997 129.278226,60.925 C129.43156,60.9850003 129.571558,61.0558329 129.698226,61.1375 C129.824893,61.2191671 129.936558,61.3083328 130.033226,61.405 L129.683226,61.95 Z M132.184838,66.08 C131.93817,66.08 131.720673,66.044167 131.532338,65.9725 C131.344004,65.900833 131.185672,65.7991673 131.057338,65.6675 C130.929004,65.5358327 130.831505,65.3766676 130.764838,65.19 C130.698171,65.0033324 130.664838,64.7950011 130.664838,64.565 L130.664838,61.885 L130.224838,61.885 C130.144838,61.885 130.076505,61.8591669 130.019838,61.8075 C129.963171,61.7558331 129.934838,61.6800005 129.934838,61.58 L129.934838,60.975 L130.759838,60.815 L131.064838,59.55 C131.104839,59.3899992 131.218171,59.31 131.404838,59.31 L132.214838,59.31 L132.214838,60.825 L133.474838,60.825 L133.474838,61.885 L132.214838,61.885 L132.214838,64.46 C132.214838,64.5800006 132.244005,64.6791663 132.302338,64.7575 C132.360672,64.8358337 132.444838,64.875 132.554838,64.875 C132.611505,64.875 132.659005,64.8691667 132.697338,64.8575 C132.735672,64.8458333 132.769005,64.8325001 132.797338,64.8175 C132.825672,64.8024999 132.852338,64.7891667 132.877338,64.7775 C132.902338,64.7658333 132.931505,64.76 132.964838,64.76 C133.011505,64.76 133.049005,64.7708332 133.077338,64.7925 C133.105672,64.8141668 133.134838,64.8483331 133.164838,64.895 L133.634838,65.63 C133.434837,65.7800007 133.20984,65.8924996 132.959838,65.9675 C132.709837,66.0425004 132.451506,66.08 132.184838,66.08 Z M138.838064,66 C138.741397,66 138.660564,65.9783335 138.595564,65.935 C138.530564,65.8916664 138.484731,65.8266671 138.458064,65.74 L138.338064,65.345 C138.23473,65.4550005 138.126398,65.5549995 138.013064,65.645 C137.89973,65.7350004 137.777231,65.8124997 137.645564,65.8775 C137.513897,65.9425003 137.372231,65.9924998 137.220564,66.0275 C137.068896,66.0625002 136.904731,66.08 136.728064,66.08 C136.458063,66.08 136.208065,66.0200006 135.978064,65.9 C135.748063,65.7799994 135.549731,65.6066678 135.383064,65.38 C135.216396,65.1533322 135.085564,64.875835 134.990564,64.5475 C134.895563,64.219165 134.848064,63.8450021 134.848064,63.425 C134.848064,63.0383314 134.901397,62.6791683 135.008064,62.3475 C135.114731,62.0158317 135.265563,61.7291679 135.460564,61.4875 C135.655565,61.2458321 135.889729,61.0566673 136.163064,60.92 C136.436399,60.7833326 136.738062,60.715 137.068064,60.715 C137.334732,60.715 137.560563,60.7541663 137.745564,60.8325 C137.930565,60.9108337 138.098063,61.0133327 138.248064,61.14 L138.248064,58.515 L139.798064,58.515 L139.798064,66 L138.838064,66 Z M137.268064,64.89 C137.381398,64.89 137.483897,64.8791668 137.575564,64.8575 C137.667231,64.8358332 137.751397,64.8050002 137.828064,64.765 C137.904731,64.7249998 137.97723,64.6750003 138.045564,64.615 C138.113898,64.5549997 138.181397,64.4850004 138.248064,64.405 L138.248064,62.205 C138.128063,62.0749993 138.000565,61.9841669 137.865564,61.9325 C137.730563,61.8808331 137.588065,61.855 137.438064,61.855 C137.29473,61.855 137.163064,61.883333 137.043064,61.94 C136.923063,61.9966669 136.818898,62.0874994 136.730564,62.2125 C136.64223,62.3375006 136.573064,62.499999 136.523064,62.7 C136.473064,62.900001 136.448064,63.1416652 136.448064,63.425 C136.448064,63.6983347 136.468064,63.9283324 136.508064,64.115 C136.548064,64.3016676 136.603897,64.4524994 136.675564,64.5675 C136.747231,64.6825006 136.833063,64.7649998 136.933064,64.815 C137.033064,64.8650002 137.14473,64.89 137.268064,64.89 Z M142.669677,60.735 C143.013012,60.735 143.327175,60.7883328 143.612177,60.895 C143.897178,61.0016672 144.142176,61.1566656 144.347177,61.36 C144.552178,61.5633343 144.712176,61.8124985 144.827177,62.1075 C144.942177,62.4025015 144.999677,62.7366648 144.999677,63.11 C144.999677,63.2266672 144.994677,63.3216663 144.984677,63.395 C144.974677,63.4683337 144.956343,63.5266664 144.929677,63.57 C144.90301,63.6133335 144.867177,63.6433332 144.822177,63.66 C144.777176,63.6766667 144.719677,63.685 144.649677,63.685 L141.659677,63.685 C141.709677,64.1183355 141.841342,64.432499 142.054677,64.6275 C142.268011,64.822501 142.543008,64.92 142.879677,64.92 C143.059678,64.92 143.214676,64.8983335 143.344677,64.855 C143.474677,64.8116664 143.590509,64.7633336 143.692177,64.71 C143.793844,64.6566664 143.887176,64.6083335 143.972177,64.565 C144.057177,64.5216664 144.146343,64.5 144.239677,64.5 C144.363011,64.5 144.456343,64.5449995 144.519677,64.635 L144.969677,65.19 C144.809676,65.3733342 144.637178,65.5224994 144.452177,65.6375 C144.267176,65.7525006 144.077178,65.8424997 143.882177,65.9075 C143.687176,65.9725003 143.492178,66.0174999 143.297177,66.0425 C143.102176,66.0675001 142.916344,66.08 142.739677,66.08 C142.376341,66.08 142.035512,66.0208339 141.717177,65.9025 C141.398842,65.7841661 141.120511,65.6083345 140.882177,65.375 C140.643842,65.1416655 140.455511,64.8516684 140.317177,64.505 C140.178843,64.1583316 140.109677,63.7550023 140.109677,63.295 C140.109677,62.9483316 140.168843,62.6200015 140.287177,62.31 C140.405511,61.9999984 140.575509,61.7283345 140.797177,61.495 C141.018844,61.2616655 141.287175,61.0766673 141.602177,60.94 C141.917178,60.8033326 142.273008,60.735 142.669677,60.735 Z M142.699677,61.805 C142.403008,61.805 142.171344,61.8891658 142.004677,62.0575 C141.838009,62.2258342 141.72801,62.4683317 141.674677,62.785 L143.609677,62.785 C143.609677,62.661666 143.593843,62.5416672 143.562177,62.425 C143.53051,62.3083327 143.478844,62.2041671 143.407177,62.1125 C143.33551,62.0208329 143.241344,61.9466669 143.124677,61.89 C143.008009,61.833333 142.866344,61.805 142.699677,61.805 Z M146.941289,58.515 L146.941289,66 L145.391289,66 L145.391289,58.515 L146.941289,58.515 Z M149.242902,60.815 L149.242902,66 L147.692902,66 L147.692902,60.815 L149.242902,60.815 Z M149.422902,59.395 C149.422902,59.5183339 149.397902,59.6341661 149.347902,59.7425 C149.297902,59.8508339 149.229569,59.9458329 149.142902,60.0275 C149.056235,60.1091671 148.955403,60.1741664 148.840402,60.2225 C148.725402,60.2708336 148.602903,60.295 148.472902,60.295 C148.346235,60.295 148.227903,60.2708336 148.117902,60.2225 C148.007902,60.1741664 147.910403,60.1091671 147.825402,60.0275 C147.740402,59.9458329 147.673736,59.8508339 147.625402,59.7425 C147.577069,59.6341661 147.552902,59.5183339 147.552902,59.395 C147.552902,59.2683327 147.577069,59.1500005 147.625402,59.04 C147.673736,58.9299994 147.740402,58.8333337 147.825402,58.75 C147.910403,58.6666662 148.007902,58.6016669 148.117902,58.555 C148.227903,58.5083331 148.346235,58.485 148.472902,58.485 C148.602903,58.485 148.725402,58.5083331 148.840402,58.555 C148.955403,58.6016669 149.056235,58.6666662 149.142902,58.75 C149.229569,58.8333337 149.297902,58.9299994 149.347902,59.04 C149.397902,59.1500005 149.422902,59.2683327 149.422902,59.395 Z M152.814515,66 L151.404515,66 L149.394515,60.815 L150.684515,60.815 C150.794515,60.815 150.887015,60.8408331 150.962015,60.8925 C151.037015,60.9441669 151.087848,61.0083329 151.114515,61.085 L151.834515,63.41 C151.891182,63.6000009 151.945348,63.7849991 151.997015,63.965 C152.048682,64.1450009 152.092848,64.3249991 152.129515,64.505 C152.166182,64.3249991 152.211181,64.1450009 152.264515,63.965 C152.317849,63.7849991 152.374515,63.6000009 152.434515,63.41 L153.184515,61.085 C153.211182,61.0083329 153.261181,60.9441669 153.334515,60.8925 C153.407849,60.8408331 153.494514,60.815 153.594515,60.815 L154.824515,60.815 L152.814515,66 Z M156.946128,60.735 C157.289463,60.735 157.603626,60.7883328 157.888628,60.895 C158.173629,61.0016672 158.418627,61.1566656 158.623628,61.36 C158.828629,61.5633343 158.988627,61.8124985 159.103628,62.1075 C159.218628,62.4025015 159.276128,62.7366648 159.276128,63.11 C159.276128,63.2266672 159.271128,63.3216663 159.261128,63.395 C159.251128,63.4683337 159.232795,63.5266664 159.206128,63.57 C159.179461,63.6133335 159.143628,63.6433332 159.098628,63.66 C159.053627,63.6766667 158.996128,63.685 158.926128,63.685 L155.936128,63.685 C155.986128,64.1183355 156.117793,64.432499 156.331128,64.6275 C156.544462,64.822501 156.819459,64.92 157.156128,64.92 C157.336129,64.92 157.491127,64.8983335 157.621128,64.855 C157.751128,64.8116664 157.866961,64.7633336 157.968628,64.71 C158.070295,64.6566664 158.163627,64.6083335 158.248628,64.565 C158.333628,64.5216664 158.422794,64.5 158.516128,64.5 C158.639462,64.5 158.732794,64.5449995 158.796128,64.635 L159.246128,65.19 C159.086127,65.3733342 158.913629,65.5224994 158.728628,65.6375 C158.543627,65.7525006 158.353629,65.8424997 158.158628,65.9075 C157.963627,65.9725003 157.768629,66.0174999 157.573628,66.0425 C157.378627,66.0675001 157.192795,66.08 157.016128,66.08 C156.652793,66.08 156.311963,66.0208339 155.993628,65.9025 C155.675293,65.7841661 155.396962,65.6083345 155.158628,65.375 C154.920293,65.1416655 154.731962,64.8516684 154.593628,64.505 C154.455294,64.1583316 154.386128,63.7550023 154.386128,63.295 C154.386128,62.9483316 154.445294,62.6200015 154.563628,62.31 C154.681962,61.9999984 154.85196,61.7283345 155.073628,61.495 C155.295295,61.2616655 155.563626,61.0766673 155.878628,60.94 C156.193629,60.8033326 156.549459,60.735 156.946128,60.735 Z M156.976128,61.805 C156.67946,61.805 156.447795,61.8891658 156.281128,62.0575 C156.11446,62.2258342 156.004461,62.4683317 155.951128,62.785 L157.886128,62.785 C157.886128,62.661666 157.870295,62.5416672 157.838628,62.425 C157.806961,62.3083327 157.755295,62.2041671 157.683628,62.1125 C157.611961,62.0208329 157.517795,61.9466669 157.401128,61.89 C157.28446,61.833333 157.142795,61.805 156.976128,61.805 Z M159.61774,66 L159.61774,60.815 L160.53774,60.815 C160.614408,60.815 160.678574,60.8216666 160.73024,60.835 C160.781907,60.8483334 160.82524,60.8691665 160.86024,60.8975 C160.895241,60.9258335 160.921907,60.9633331 160.94024,61.01 C160.958574,61.0566669 160.974407,61.113333 160.98774,61.18 L161.07274,61.665 C161.262741,61.3716652 161.476073,61.1400008 161.71274,60.97 C161.949408,60.7999991 162.207739,60.715 162.48774,60.715 C162.724408,60.715 162.914406,60.7716661 163.05774,60.885 L162.85774,62.025 C162.844407,62.0950003 162.817741,62.1441665 162.77774,62.1725 C162.73774,62.2008335 162.684407,62.215 162.61774,62.215 C162.561074,62.215 162.494408,62.2075001 162.41774,62.1925 C162.341073,62.1774999 162.244408,62.17 162.12774,62.17 C161.721072,62.17 161.401075,62.3866645 161.16774,62.82 L161.16774,66 L159.61774,66 Z M165.319353,67.345 C165.272686,67.4483338 165.21602,67.5241664 165.149353,67.5725 C165.082686,67.6208336 164.976021,67.645 164.829353,67.645 L163.669353,67.645 L164.669353,65.545 L162.599353,60.815 L163.969353,60.815 C164.089354,60.815 164.182686,60.8416664 164.249353,60.895 C164.31602,60.9483336 164.362686,61.0116663 164.389353,61.085 L165.239353,63.32 C165.319354,63.5266677 165.384353,63.7333323 165.434353,63.94 C165.467687,63.8333328 165.504353,63.7283338 165.544353,63.625 C165.584353,63.5216661 165.622686,63.4166672 165.659353,63.31 L166.429353,61.085 C166.45602,61.0083329 166.50852,60.9441669 166.586853,60.8925 C166.665187,60.8408331 166.749353,60.815 166.839353,60.815 L168.089353,60.815 L165.319353,67.345 Z" id="fast-delivery" fill="#FFFFFF"></path>
            </g>
        </g>
    </g>
</svg>