<?xml version="1.0" encoding="UTF-8"?>
<svg width="19px" height="19px" viewBox="0 0 19 19" version="1.1" xmlns="http://www.w3.org/2000/svg" xmlns:xlink="http://www.w3.org/1999/xlink">
    <!-- Generator: Sketch 52.4 (67378) - http://www.bohemiancoding.com/sketch -->
    <title>Combined Shape</title>
    <desc>Created with Sketch.</desc>
    <g id="Page-1" stroke="none" stroke-width="1" fill="none" fill-rule="evenodd">
        <g id="iPhone-8-Copy-16" transform="translate(-334.000000, -23.000000)" fill="#4A4A4A">
            <path d="M344.371712,30.9486347 L351.108808,30.9486347 C351.777922,30.9486347 352.320346,31.4910589 352.320346,32.1601732 C352.320346,32.8292874 351.777922,33.3717116 351.108808,33.3717116 L344.371712,33.3717116 L344.371712,40.1088079 C344.371712,40.7779221 343.829287,41.3203463 343.160173,41.3203463 C342.491059,41.3203463 341.948635,40.7779221 341.948635,40.1088079 L341.948635,33.3717116 L335.211538,33.3717116 C334.542424,33.3717116 334,32.8292874 334,32.1601732 C334,31.4910589 334.542424,30.9486347 335.211538,30.9486347 L341.948635,30.9486347 L341.948635,24.2115385 C341.948635,23.5424242 342.491059,23 343.160173,23 C343.829287,23 344.371712,23.5424242 344.371712,24.2115385 L344.371712,30.9486347 Z" id="Combined-Shape"></path>
        </g>
    </g>
</svg>